<svg width="225" height="225" viewBox="0 0 225 225" fill="none" xmlns="http://www.w3.org/2000/svg">
<g id="QR Code" clip-path="url(#clip0_4114_3715)">
<path id="Vector" d="M225 0H0V225H225V0Z" fill="white"/>
<g id="Vector_2">
<path d="M17.7642 7.79224H7.79199V17.7644H17.7642V7.79224Z" fill="black"/>
<path d="M27.7363 7.79224H17.7642V17.7644H27.7363V7.79224Z" fill="black"/>
<path d="M37.7085 7.79224H27.7363V17.7644H37.7085V7.79224Z" fill="black"/>
<path d="M47.6807 7.79224H37.7085V17.7644H47.6807V7.79224Z" fill="black"/>
<path d="M57.6528 7.79224H47.6807V17.7644H57.6528V7.79224Z" fill="black"/>
<path d="M67.625 7.79224H57.6528V17.7644H67.625V7.79224Z" fill="black"/>
<path d="M77.5972 7.79224H67.625V17.7644H77.5972V7.79224Z" fill="black"/>
<path d="M97.5415 7.79224H87.5694V17.7644H97.5415V7.79224Z" fill="black"/>
<path d="M107.514 7.79224H97.5415V17.7644H107.514V7.79224Z" fill="black"/>
<path d="M137.43 7.79224H127.458V17.7644H137.43V7.79224Z" fill="black"/>
<path d="M157.375 7.79224H147.402V17.7644H157.375V7.79224Z" fill="black"/>
<path d="M167.347 7.79224H157.375V17.7644H167.347V7.79224Z" fill="black"/>
<path d="M177.319 7.79224H167.347V17.7644H177.319V7.79224Z" fill="black"/>
<path d="M187.291 7.79224H177.319V17.7644H187.291V7.79224Z" fill="black"/>
<path d="M197.263 7.79224H187.291V17.7644H197.263V7.79224Z" fill="black"/>
<path d="M207.235 7.79224H197.263V17.7644H207.235V7.79224Z" fill="black"/>
<path d="M217.208 7.79224H207.235V17.7644H217.208V7.79224Z" fill="black"/>
<path d="M17.7642 17.7644H7.79199V27.7366H17.7642V17.7644Z" fill="black"/>
<path d="M77.5972 17.7644H67.625V27.7366H77.5972V17.7644Z" fill="black"/>
<path d="M107.514 17.7644H97.5415L97.5415 27.7366H107.514V17.7644Z" fill="black"/>
<path d="M157.375 17.7644H147.402V27.7366H157.375V17.7644Z" fill="black"/>
<path d="M217.208 17.7644H207.235V27.7366H217.208V17.7644Z" fill="black"/>
<path d="M17.7642 27.7366H7.79199V37.7087H17.7642V27.7366Z" fill="black"/>
<path d="M37.7085 27.7366H27.7363V37.7087H37.7085V27.7366Z" fill="black"/>
<path d="M47.6807 27.7366H37.7085V37.7087H47.6807V27.7366Z" fill="black"/>
<path d="M57.6528 27.7366H47.6807V37.7087H57.6528V27.7366Z" fill="black"/>
<path d="M77.5972 27.7366H67.625V37.7087H77.5972V27.7366Z" fill="black"/>
<path d="M97.5415 27.7366H87.5694V37.7087H97.5415L97.5415 27.7366Z" fill="black"/>
<path d="M107.514 27.7366H97.5415L97.5415 37.7087H107.514V27.7366Z" fill="black"/>
<path d="M117.486 27.7366H107.514V37.7087H117.486V27.7366Z" fill="black"/>
<path d="M157.375 27.7366H147.402V37.7087H157.375V27.7366Z" fill="black"/>
<path d="M177.319 27.7366H167.347V37.7087H177.319V27.7366Z" fill="black"/>
<path d="M187.291 27.7366H177.319V37.7087H187.291V27.7366Z" fill="black"/>
<path d="M197.263 27.7366H187.291V37.7087H197.263V27.7366Z" fill="black"/>
<path d="M217.208 27.7366H207.235V37.7087H217.208V27.7366Z" fill="black"/>
<path d="M17.7642 37.7087H7.79199V47.6809H17.7642V37.7087Z" fill="black"/>
<path d="M37.7085 37.7087H27.7363V47.6809H37.7085V37.7087Z" fill="black"/>
<path d="M47.6807 37.7087H37.7085V47.6809H47.6807V37.7087Z" fill="black"/>
<path d="M57.6528 37.7087H47.6807V47.6809H57.6528V37.7087Z" fill="black"/>
<path d="M77.5972 37.7087H67.625V47.6809H77.5972V37.7087Z" fill="black"/>
<path d="M97.5415 37.7087H87.5694V47.6809H97.5415V37.7087Z" fill="black"/>
<path d="M107.514 37.7087H97.5415V47.6809H107.514V37.7087Z" fill="black"/>
<path d="M137.43 37.7087H127.458V47.6809H137.43V37.7087Z" fill="black"/>
<path d="M157.375 37.7087H147.402V47.6809H157.375V37.7087Z" fill="black"/>
<path d="M177.319 37.7087H167.347V47.6809H177.319V37.7087Z" fill="black"/>
<path d="M187.291 37.7087H177.319V47.6809H187.291V37.7087Z" fill="black"/>
<path d="M197.263 37.7087H187.291V47.6809H197.263V37.7087Z" fill="black"/>
<path d="M217.208 37.7087H207.235V47.6809H217.208V37.7087Z" fill="black"/>
<path d="M17.7642 47.6809H7.79199V57.6531H17.7642V47.6809Z" fill="black"/>
<path d="M37.7085 47.6809H27.7363V57.6531H37.7085V47.6809Z" fill="black"/>
<path d="M47.6807 47.6809H37.7085V57.6531H47.6807V47.6809Z" fill="black"/>
<path d="M57.6528 47.6809H47.6807V57.6531H57.6528V47.6809Z" fill="black"/>
<path d="M77.5972 47.6809H67.625V57.6531H77.5972V47.6809Z" fill="black"/>
<path d="M107.514 47.6809H97.5415L97.5415 57.6531H107.514V47.6809Z" fill="black"/>
<path d="M117.486 47.6809H107.514V57.6531H117.486V47.6809Z" fill="black"/>
<path d="M157.375 47.6809H147.402V57.6531H157.375V47.6809Z" fill="black"/>
<path d="M177.319 47.6809H167.347V57.6531H177.319V47.6809Z" fill="black"/>
<path d="M187.291 47.6809H177.319V57.6531H187.291V47.6809Z" fill="black"/>
<path d="M197.263 47.6809H187.291V57.6531H197.263V47.6809Z" fill="black"/>
<path d="M217.208 47.6809H207.235V57.6531H217.208V47.6809Z" fill="black"/>
<path d="M17.7642 57.6531H7.79199V67.6253H17.7642V57.6531Z" fill="black"/>
<path d="M77.5972 57.6531H67.625V67.6253H77.5972V57.6531Z" fill="black"/>
<path d="M97.5415 57.6531H87.5694V67.6253H97.5415L97.5415 57.6531Z" fill="black"/>
<path d="M117.486 57.6531H107.514L107.514 67.6253H117.486V57.6531Z" fill="black"/>
<path d="M157.375 57.6531H147.402V67.6253H157.375V57.6531Z" fill="black"/>
<path d="M217.208 57.6531H207.235V67.6253H217.208V57.6531Z" fill="black"/>
<path d="M17.7642 67.6253H7.79199V77.5974H17.7642V67.6253Z" fill="black"/>
<path d="M27.7363 67.6253H17.7642V77.5974H27.7363V67.6253Z" fill="black"/>
<path d="M37.7085 67.6253H27.7363V77.5974H37.7085V67.6253Z" fill="black"/>
<path d="M47.6807 67.6253H37.7085V77.5974H47.6807V67.6253Z" fill="black"/>
<path d="M57.6528 67.6253H47.6807V77.5974H57.6528V67.6253Z" fill="black"/>
<path d="M67.625 67.6253H57.6528V77.5974H67.625V67.6253Z" fill="black"/>
<path d="M77.5972 67.6253H67.625V77.5974H77.5972V67.6253Z" fill="black"/>
<path d="M97.5415 67.6253H87.5694V77.5974H97.5415V67.6253Z" fill="black"/>
<path d="M117.486 67.6253H107.514V77.5974H117.486V67.6253Z" fill="black"/>
<path d="M137.43 67.6253H127.458V77.5974H137.43V67.6253Z" fill="black"/>
<path d="M157.375 67.6253H147.402V77.5974H157.375V67.6253Z" fill="black"/>
<path d="M167.347 67.6253H157.375V77.5974H167.347V67.6253Z" fill="black"/>
<path d="M177.319 67.6253H167.347V77.5974H177.319V67.6253Z" fill="black"/>
<path d="M187.291 67.6253H177.319V77.5974H187.291V67.6253Z" fill="black"/>
<path d="M197.263 67.6253H187.291V77.5974H197.263V67.6253Z" fill="black"/>
<path d="M207.235 67.6253H197.263V77.5974H207.235V67.6253Z" fill="black"/>
<path d="M217.208 67.6253H207.235V77.5974H217.208V67.6253Z" fill="black"/>
<path d="M97.5415 77.5974H87.5694V87.5696H97.5415V77.5974Z" fill="black"/>
<path d="M117.486 77.5974H107.514V87.5696H117.486V77.5974Z" fill="black"/>
<path d="M17.7642 87.5696H7.79199V97.5418H17.7642V87.5696Z" fill="black"/>
<path d="M27.7363 87.5696H17.7642V97.5418H27.7363V87.5696Z" fill="black"/>
<path d="M47.6807 87.5696H37.7085V97.5418H47.6807V87.5696Z" fill="black"/>
<path d="M77.5972 87.5696H67.625V97.5418H77.5972V87.5696Z" fill="black"/>
<path d="M87.5694 87.5696L77.5972 87.5696V97.5418H87.5694L87.5694 87.5696Z" fill="black"/>
<path d="M117.486 87.5696H107.514V97.5418H117.486V87.5696Z" fill="black"/>
<path d="M127.458 87.5696L117.486 87.5696V97.5418H127.458V87.5696Z" fill="black"/>
<path d="M137.43 87.5696H127.458V97.5418H137.43V87.5696Z" fill="black"/>
<path d="M147.402 87.5696H137.43V97.5418H147.402V87.5696Z" fill="black"/>
<path d="M157.375 87.5696H147.402V97.5418H157.375V87.5696Z" fill="black"/>
<path d="M167.347 87.5696H157.375V97.5418H167.347V87.5696Z" fill="black"/>
<path d="M187.291 87.5696H177.319V97.5418H187.291V87.5696Z" fill="black"/>
<path d="M197.263 87.5696H187.291V97.5418H197.263V87.5696Z" fill="black"/>
<path d="M217.208 87.5696H207.235V97.5418H217.208V87.5696Z" fill="black"/>
<path d="M17.7642 97.5418H7.79199V107.514H17.7642V97.5418Z" fill="black"/>
<path d="M27.7363 97.5418H17.7642V107.514H27.7363V97.5418Z" fill="black"/>
<path d="M47.6807 97.5418H37.7085V107.514H47.6807V97.5418Z" fill="black"/>
<path d="M57.6528 97.5418L47.6807 97.5418V107.514H57.6528V97.5418Z" fill="black"/>
<path d="M117.486 97.5418H107.514V107.514H117.486V97.5418Z" fill="black"/>
<path d="M147.402 97.5418H137.43V107.514H147.402V97.5418Z" fill="black"/>
<path d="M157.375 97.5418H147.402V107.514H157.375V97.5418Z" fill="black"/>
<path d="M177.319 97.5418H167.347V107.514H177.319V97.5418Z" fill="black"/>
<path d="M187.291 97.5418H177.319V107.514H187.291V97.5418Z" fill="black"/>
<path d="M207.235 97.5418H197.263V107.514H207.235V97.5418Z" fill="black"/>
<path d="M217.208 97.5418H207.235V107.514H217.208V97.5418Z" fill="black"/>
<path d="M27.7363 107.514H17.7642V117.486H27.7363V107.514Z" fill="black"/>
<path d="M47.6807 107.514H37.7085V117.486H47.6807V107.514Z" fill="black"/>
<path d="M57.6528 107.514H47.6807V117.486H57.6528V107.514Z" fill="black"/>
<path d="M67.625 107.514L57.6528 107.514V117.486H67.625V107.514Z" fill="black"/>
<path d="M77.5972 107.514H67.625V117.486H77.5972V107.514Z" fill="black"/>
<path d="M87.5694 107.514H77.5972V117.486H87.5694V107.514Z" fill="black"/>
<path d="M97.5415 107.514H87.5694V117.486H97.5415V107.514Z" fill="black"/>
<path d="M107.514 107.514L97.5415 107.514V117.486H107.514L107.514 107.514Z" fill="black"/>
<path d="M167.347 107.514H157.375V117.486H167.347V107.514Z" fill="black"/>
<path d="M207.235 107.514H197.263V117.486H207.235V107.514Z" fill="black"/>
<path d="M217.208 107.514H207.235V117.486H217.208V107.514Z" fill="black"/>
<path d="M37.7085 117.486H27.7363V127.458H37.7085V117.486Z" fill="black"/>
<path d="M47.6807 117.486H37.7085V127.458H47.6807V117.486Z" fill="black"/>
<path d="M137.43 117.486H127.458V127.458H137.43V117.486Z" fill="black"/>
<path d="M167.347 117.486H157.375V127.458H167.347V117.486Z" fill="black"/>
<path d="M177.319 117.486L167.347 117.486V127.458H177.319V117.486Z" fill="black"/>
<path d="M197.263 117.486L187.291 117.486V127.458H197.263V117.486Z" fill="black"/>
<path d="M207.235 117.486H197.263V127.458H207.235V117.486Z" fill="black"/>
<path d="M217.208 117.486H207.235V127.458H217.208V117.486Z" fill="black"/>
<path d="M27.7363 127.458H17.7642V137.43H27.7363V127.458Z" fill="black"/>
<path d="M37.7085 127.458H27.7363V137.43H37.7085V127.458Z" fill="black"/>
<path d="M47.6807 127.458H37.7085V137.43H47.6807V127.458Z" fill="black"/>
<path d="M77.5972 127.458H67.625V137.43H77.5972V127.458Z" fill="black"/>
<path d="M107.514 127.458H97.5415V137.43H107.514V127.458Z" fill="black"/>
<path d="M117.486 127.458H107.514V137.43H117.486V127.458Z" fill="black"/>
<path d="M127.458 127.458H117.486V137.43H127.458V127.458Z" fill="black"/>
<path d="M167.347 127.458H157.375V137.43H167.347V127.458Z" fill="black"/>
<path d="M207.235 127.458H197.263V137.43H207.235V127.458Z" fill="black"/>
<path d="M217.208 127.458H207.235V137.43H217.208V127.458Z" fill="black"/>
<path d="M117.486 137.43H107.514L107.514 147.403H117.486V137.43Z" fill="black"/>
<path d="M127.458 137.43H117.486V147.403H127.458V137.43Z" fill="black"/>
<path d="M137.43 137.43H127.458V147.403H137.43V137.43Z" fill="black"/>
<path d="M147.402 137.43H137.43V147.403H147.402V137.43Z" fill="black"/>
<path d="M157.375 137.43H147.402V147.403H157.375V137.43Z" fill="black"/>
<path d="M167.347 137.43H157.375V147.403H167.347V137.43Z" fill="black"/>
<path d="M187.291 137.43H177.319V147.403H187.291V137.43Z" fill="black"/>
<path d="M197.263 137.43H187.291V147.403H197.263V137.43Z" fill="black"/>
<path d="M17.7642 147.403H7.79199V157.375H17.7642V147.403Z" fill="black"/>
<path d="M27.7363 147.403H17.7642V157.375H27.7363V147.403Z" fill="black"/>
<path d="M37.7085 147.403H27.7363V157.375H37.7085V147.403Z" fill="black"/>
<path d="M47.6807 147.403H37.7085V157.375H47.6807V147.403Z" fill="black"/>
<path d="M57.6528 147.403H47.6807V157.375H57.6528V147.403Z" fill="black"/>
<path d="M67.625 147.403H57.6528V157.375H67.625V147.403Z" fill="black"/>
<path d="M77.5972 147.403H67.625V157.375H77.5972V147.403Z" fill="black"/>
<path d="M97.5415 147.403H87.5694V157.375H97.5415V147.403Z" fill="black"/>
<path d="M117.486 147.403H107.514V157.375H117.486V147.403Z" fill="black"/>
<path d="M157.375 147.403H147.402V157.375H157.375V147.403Z" fill="black"/>
<path d="M167.347 147.403H157.375V157.375H167.347V147.403Z" fill="black"/>
<path d="M177.319 147.403H167.347V157.375H177.319V147.403Z" fill="black"/>
<path d="M207.235 147.403H197.263V157.375H207.235V147.403Z" fill="black"/>
<path d="M17.7642 157.375H7.79199V167.347H17.7642V157.375Z" fill="black"/>
<path d="M77.5972 157.375H67.625V167.347H77.5972V157.375Z" fill="black"/>
<path d="M107.514 157.375H97.5415L97.5415 167.347H107.514L107.514 157.375Z" fill="black"/>
<path d="M117.486 157.375H107.514L107.514 167.347H117.486V157.375Z" fill="black"/>
<path d="M147.402 157.375H137.43V167.347H147.402V157.375Z" fill="black"/>
<path d="M217.208 157.375H207.235V167.347H217.208V157.375Z" fill="black"/>
<path d="M17.7642 167.347H7.79199V177.319H17.7642V167.347Z" fill="black"/>
<path d="M37.7085 167.347H27.7363V177.319H37.7085V167.347Z" fill="black"/>
<path d="M47.6807 167.347H37.7085V177.319H47.6807V167.347Z" fill="black"/>
<path d="M57.6528 167.347H47.6807V177.319H57.6528V167.347Z" fill="black"/>
<path d="M77.5972 167.347H67.625V177.319H77.5972V167.347Z" fill="black"/>
<path d="M117.486 167.347H107.514L107.514 177.319H117.486V167.347Z" fill="black"/>
<path d="M137.43 167.347H127.458V177.319H137.43V167.347Z" fill="black"/>
<path d="M157.375 167.347H147.402V177.319H157.375V167.347Z" fill="black"/>
<path d="M187.291 167.347H177.319V177.319H187.291V167.347Z" fill="black"/>
<path d="M197.263 167.347H187.291V177.319H197.263V167.347Z" fill="black"/>
<path d="M207.235 167.347H197.263V177.319H207.235V167.347Z" fill="black"/>
<path d="M17.7642 177.319H7.79199V187.291H17.7642V177.319Z" fill="black"/>
<path d="M37.7085 177.319H27.7363V187.291H37.7085V177.319Z" fill="black"/>
<path d="M47.6807 177.319H37.7085V187.291H47.6807V177.319Z" fill="black"/>
<path d="M57.6528 177.319H47.6807V187.291H57.6528V177.319Z" fill="black"/>
<path d="M77.5972 177.319H67.625V187.291H77.5972V177.319Z" fill="black"/>
<path d="M97.5415 177.319H87.5694V187.291H97.5415V177.319Z" fill="black"/>
<path d="M107.514 177.319H97.5415V187.291H107.514L107.514 177.319Z" fill="black"/>
<path d="M127.458 177.319H117.486L117.486 187.291H127.458V177.319Z" fill="black"/>
<path d="M137.43 177.319H127.458V187.291H137.43V177.319Z" fill="black"/>
<path d="M147.402 177.319H137.43V187.291H147.402V177.319Z" fill="black"/>
<path d="M157.375 177.319H147.402V187.291H157.375V177.319Z" fill="black"/>
<path d="M167.347 177.319H157.375V187.291H167.347V177.319Z" fill="black"/>
<path d="M187.291 177.319H177.319V187.291H187.291V177.319Z" fill="black"/>
<path d="M207.235 177.319H197.263V187.291H207.235V177.319Z" fill="black"/>
<path d="M17.7642 187.291H7.79199V197.263H17.7642V187.291Z" fill="black"/>
<path d="M37.7085 187.291H27.7363V197.263H37.7085V187.291Z" fill="black"/>
<path d="M47.6807 187.291H37.7085V197.263H47.6807V187.291Z" fill="black"/>
<path d="M57.6528 187.291H47.6807V197.263H57.6528V187.291Z" fill="black"/>
<path d="M77.5972 187.291H67.625V197.263H77.5972V187.291Z" fill="black"/>
<path d="M107.514 187.291H97.5415L97.5415 197.263H107.514V187.291Z" fill="black"/>
<path d="M157.375 187.291H147.402V197.263H157.375V187.291Z" fill="black"/>
<path d="M167.347 187.291H157.375V197.263H167.347V187.291Z" fill="black"/>
<path d="M177.319 187.291H167.347V197.263H177.319V187.291Z" fill="black"/>
<path d="M197.263 187.291H187.291V197.263H197.263V187.291Z" fill="black"/>
<path d="M17.7642 197.263H7.79199V207.236H17.7642V197.263Z" fill="black"/>
<path d="M77.5972 197.263H67.625V207.236H77.5972V197.263Z" fill="black"/>
<path d="M97.5415 197.263H87.5694V207.236H97.5415L97.5415 197.263Z" fill="black"/>
<path d="M117.486 197.263H107.514L107.514 207.236H117.486V197.263Z" fill="black"/>
<path d="M127.458 197.263H117.486V207.236H127.458V197.263Z" fill="black"/>
<path d="M137.43 197.263H127.458V207.236H137.43V197.263Z" fill="black"/>
<path d="M147.402 197.263H137.43V207.236H147.402V197.263Z" fill="black"/>
<path d="M177.319 197.263H167.347V207.236H177.319V197.263Z" fill="black"/>
<path d="M187.291 197.263H177.319V207.236H187.291V197.263Z" fill="black"/>
<path d="M17.7642 207.236H7.79199V217.208H17.7642V207.236Z" fill="black"/>
<path d="M27.7363 207.236H17.7642V217.208H27.7363V207.236Z" fill="black"/>
<path d="M37.7085 207.236H27.7363V217.208H37.7085V207.236Z" fill="black"/>
<path d="M47.6807 207.236H37.7085V217.208H47.6807V207.236Z" fill="black"/>
<path d="M57.6528 207.236H47.6807V217.208H57.6528V207.236Z" fill="black"/>
<path d="M67.625 207.236H57.6528V217.208H67.625V207.236Z" fill="black"/>
<path d="M77.5972 207.236H67.625V217.208H77.5972V207.236Z" fill="black"/>
<path d="M97.5415 207.236H87.5694V217.208H97.5415V207.236Z" fill="black"/>
<path d="M107.514 207.236H97.5415V217.208H107.514L107.514 207.236Z" fill="black"/>
<path d="M117.486 207.236H107.514L107.514 217.208H117.486V207.236Z" fill="black"/>
<path d="M177.319 207.236H167.347V217.208H177.319V207.236Z" fill="black"/>
<path d="M207.235 207.236H197.263V217.208H207.235V207.236Z" fill="black"/>
</g>
</g>
<defs>
<clipPath id="clip0_4114_3715">
<rect width="225" height="225" fill="white"/>
</clipPath>
</defs>
</svg>
